PathFileType	4	(X/Y/Z)	7_2_32_p1_0-280_filt_butterworth.trc
DataRate	CameraRate	NumFrames	NumMarkers	Units	OrigDataRate	OrigDataStartFrame	OrigNumFrames
59.0	59.0	6	27	m	59.0	0	280
Frame#	Time	RHip			RKnee			RAnkle			RBigToe			RSmallToe			RHeel			LHip			LKnee			LAnkle			LBigToe			LSmallToe			LHeel			Neck			Head			Nose			RShoulder			RElbow			RWrist			RThumb			RIndex			RPinky			LShoulder			LElbow			LWrist			LThumb			LIndex			LPinky			
		X1	Y1	Z1	X2	Y2	Z2	X3	Y3	Z3	X4	Y4	Z4	X5	Y5	Z5	X6	Y6	Z6	X7	Y7	Z7	X8	Y8	Z8	X9	Y9	Z9	X10	Y10	Z10	X11	Y11	Z11	X12	Y12	Z12	X13	Y13	Z13	X14	Y14	Z14	X15	Y15	Z15	X16	Y16	Z16	X17	Y17	Z17	X18	Y18	Z18	X19	Y19	Z19	X20	Y20	Z20	X21	Y21	Z21	X22	Y22	Z22	X23	Y23	Z23	X24	Y24	Z24	X25	Y25	Z25	X26	Y26	Z26	X27	Y27	Z27	
0	0.0	0.2885876761099886	0.3161346407509871	1.1562911680900083	0.3006616833760101	0.29243728685663106	1.5900511387165353	0.28624813978484703	0.2970930009239394	2.040751916791916	0.2572876338749331	0.09909026168197016	2.0025228334246354	0.31004916007354744	0.11934479688486041	2.005310790541695	0.26054230897222524	0.33797626932207075	2.1146904326926816	0.0649627149006254	0.3204665254544448	1.1605566979569737	0.10205037010568668	0.2915026408655787	1.5869882740632753	0.10927818975242685	0.25761045242747027	2.0042648364812776	0.11322650578297636	0.0721188066049818	1.979536877470026	0.06180579394954639	0.1159547505652109	1.983206067664634	0.11675161862906083	0.2964547887219605	2.0766624066855566	0.18904260395585032	0.34285291850271754	0.6184457721267786	0.19165473448114817	0.348788339877205	0.3805599602775108	0.1865342275445262	0.29474714358404774	0.49476399038299845	0.3522562943316192	0.36100600328494953	0.7185055820434088	0.35153613162308994	0.2753626750933859	0.9572359012359246	0.25388598397749135	0.1335448362634581	1.1324334497095787	0.18404070324877106	0.07890924082169384	1.2073137069597148	0.1701623228370795	0.10437667128803788	1.2355684025730247	0.19126252498485039	0.13165210381806425	1.242743707486443	0.03082483070117928	0.36626799179474445	0.7052400840183497	0.007747171018836568	0.2605485129846683	0.9296529623609414	0.1256152913883312	0.09659714923439902	1.0957295170264392	0.21510084787372546	0.02842290998423916	1.1214200537347683	0.21239279444899006	0.014036915135759165	1.1499010579958633	0.16543071022692837	0.09112761221494259	1.2103436698125913
1	0.0169491525423728	0.2890420084653273	0.31554649277642366	1.1588191664185168	0.2996397003714338	0.2914666524978796	1.5903786227100094	0.28505081012313493	0.3025166598264328	2.0467799535417406	0.2571377884917151	0.09898743927940348	2.0022175563987368	0.310613522983795	0.11606479144811724	2.0011239228306805	0.2599895779794856	0.3348482353656464	2.1138912803746814	0.06722568560966467	0.32262344808329946	1.168352546843744	0.10204062631997368	0.29103230225167265	1.5871254657960527	0.10984471334001938	0.25661017032229044	2.0077731659785867	0.11161618693077419	0.07454222912749181	1.9858435498950588	0.06176335820379415	0.11601186688222626	1.9834333119106304	0.11686359345695606	0.2958736494531999	2.0728952194495616	0.18916700001607098	0.34251531292165804	0.6184031700648615	0.1912378848072424	0.34845944125713796	0.38098981606034144	0.18533164606236097	0.29109671085519806	0.49536357133144077	0.3519561091063049	0.3608399833865778	0.7166343362009422	0.3524878107224672	0.2711604485502063	0.9550255596174311	0.25246496002358093	0.12938116327549176	1.1275596158038903	0.1891684277945089	0.06964859630479528	1.2002723470978829	0.17769341534812344	0.0931222666330753	1.228742558988877	0.19118701637980282	0.12119168707870308	1.2349574406124142	0.030868233932501883	0.3663162802106935	0.7039918749155073	0.007924274640445818	0.261195640784646	0.9253369284343707	0.12678168370560305	0.08976462629688924	1.0869204680435975	0.21794256661075434	0.03312560128268739	1.1233537296177993	0.21797683216407818	0.02203965616696216	1.1526387928339519	0.16539617653847197	0.0887268067393438	1.208461588108076
2	0.0338983050847457	0.2893872411201147	0.3150014548055422	1.1638852462882057	0.29960099184349187	0.29204526502249606	1.5922730267386338	0.28387827493666196	0.30760900759587556	2.052503153088371	0.257086287786948	0.09899417864601687	2.0020757772003677	0.3104617125995271	0.11600682926812077	2.000254116394348	0.2600569952475256	0.33358866987183017	2.1142814638899625	0.07022103500516386	0.32199255898796775	1.1759701130834017	0.10226065046069582	0.2919614070441016	1.5893179716234482	0.11004397538940236	0.25593665844015523	2.009113302120854	0.11065160156932982	0.07486201273667598	1.9887481886739082	0.06175697531630184	0.11609908182993986	1.9835971713017124	0.11692952079678381	0.29526256060300476	2.069671867829021	0.1893279844953255	0.3419497247582545	0.6193098858500945	0.1903081768173013	0.3478713511225401	0.381281026717997	0.1841998746502229	0.2875992337787235	0.495979904443091	0.3518374327701004	0.36081835357724873	0.7158741828392101	0.3537406458736606	0.26595312220946166	0.9518019355159022	0.24976135100071017	0.1244649241888974	1.1206446107144319	0.18915793743115114	0.06896815334411573	1.1951911809768576	0.1811624904280346	0.08887158415807271	1.2241520467900278	0.1903240767272475	0.11270162161543304	1.2260425986960035	0.030924084772944012	0.36640048994812213	0.7028192140511753	0.008789455909291317	0.26220211107465663	0.9226727777534944	0.1291916692990399	0.08317736068260687	1.079349106678853	0.22065230481514428	0.03832761232510194	1.124470106005716	0.2226378241066057	0.03071816441380571	1.1582189829154024	0.16373400561549725	0.08605508263652353	1.2060887806916158
3	0.0508474576271186	0.2896450065989257	0.31469758539305925	1.1708403201676296	0.300272275682349	0.2947118904587795	1.5958067938565599	0.28317037320761773	0.3111301586202722	2.057251933048737	0.2571695485434477	0.09912373447158221	2.0021244180109248	0.31002879009900547	0.1181979068673677	2.0023832558987786	0.2609878460845717	0.33475844872820903	2.116597233537679	0.07403532826199308	0.3195305574528922	1.1832909973849648	0.10298829725701979	0.2949650230164399	1.5942405938628066	0.10994522206412774	0.25564601962110195	2.0086802540379294	0.10997530171446016	0.07397117937774345	1.9883316027193982	0.061788197925298056	0.1162017737528292	1.9836541575727051	0.11697274699524958	0.29499818413202095	2.0682372456134974	0.18939891125998434	0.34149426078136125	0.621407197338969	0.1890261134579172	0.3471406905186291	0.3814283803298716	0.18343766101425588	0.2851766868930238	0.49646858218676065	0.3518849875289287	0.3609438789217827	0.7159311686848462	0.35517874560744156	0.2601395730395039	0.9476568914082203	0.24537594857100326	0.12025167350716659	1.1125024376950616	0.1832909741402173	0.07957170844154762	1.1934443255661398	0.18016111869058332	0.09385425546276985	1.2233331598312034	0.18869105387842924	0.10692823137054147	1.2184058816218326	0.030958861836875615	0.3664953258357462	0.7020126453760158	0.010186243507871067	0.263553648077437	0.9221844754543408	0.13263067892136987	0.07866905676318552	1.0740658552350075	0.22287901590210457	0.043155411776533134	1.1252383201231562	0.22549743009399054	0.03929103353323568	1.1653916484659417	0.1606073588702198	0.08120195407508453	1.2020989590621067
4	0.0677966101694915	0.28993814187905476	0.31443427527469253	1.177095331120981	0.30088810439997604	0.2983670179101969	1.5994218325755478	0.28307378073190714	0.31252810053648555	2.0602968894933844	0.2573505076374664	0.09934302205017964	2.00230649352525	0.31014224147642644	0.12005641161189695	2.0054475554612083	0.26212786822039924	0.3367682586982046	2.119701400437504	0.0774911840825295	0.31754991794689846	1.1896057423877087	0.10436514185618823	0.2989984251057168	1.6004038607227058	0.10981123723090108	0.25556260251803326	2.008002752510439	0.10891225348575126	0.07427053296126797	1.9866464497562442	0.06182402222492915	0.11627677724845775	1.9836269392542345	0.11714069396880467	0.295913998446892	2.069274185240797	0.18905340556373398	0.3422182273313966	0.6242447961323704	0.1880251591065434	0.34661973727573103	0.38150183260650067	0.18317469055369762	0.2842730442188625	0.49670785540827755	0.351957776984555	0.36108770863061596	0.7159191242006631	0.3563819141501872	0.2552222323916977	0.943459641751272	0.23998396290785035	0.11911717925308564	1.1052868544732388	0.1765587728331852	0.0937645444883303	1.1936503912834255	0.17804334765234836	0.10395981721394772	1.2248017386983545	0.18615659000125043	0.10468203901944807	1.2149915302365948	0.03090663295091042	0.36657124568932015	0.7016973306920744	0.011372240031486	0.26477752824200457	0.922877023454264	0.13570122820596522	0.07737639172403843	1.0707637339069918	0.22429666080256683	0.046784720642512136	1.1267653176095913	0.22653622457124276	0.04734000967226313	1.1706763426578266	0.15797575417753906	0.07627343141149079	1.1969430865113186
5	0.0847457627118644	0.2905049047358994	0.31296033437641235	1.1807432961061797	0.30114112684051747	0.3011227489246106	1.6015668864569064	0.2832387606640958	0.3121323928055321	2.061402215322638	0.2574502949337297	0.09955194745270446	2.002511803025523	0.3110584401197757	0.12061970410082924	2.008248855954802	0.2627088587937107	0.3379181899615762	2.1220062283774657	0.07929183311381785	0.3166190692042375	1.1943738611257482	0.10603197783540441	0.302026510712709	1.605542828322775	0.10975516409220913	0.25552788768135604	2.0077342831681793	0.10758303520326977	0.07693211672328287	1.985992709949737	0.06183223727942176	0.11629240054649659	1.983589391006476	0.11760198392355177	0.2985789319124417	2.0722792377910344	0.18805375509582262	0.3449693140619787	0.6271908028519363	0.18761917772278447	0.34644301645861914	0.3815432917443473	0.18320061041989283	0.2842896904938492	0.4967379386650672	0.35195736823424956	0.36113639520441543	0.7156646325497515	0.35699042334691306	0.2525603810590824	0.9398585930754341	0.23464660275183336	0.12267965976625725	1.1006568551360165	0.17479406883836338	0.10236820667295035	1.1927060280579558	0.17829765873677347	0.11422893772559704	1.2255148960736737	0.18313482991079325	0.10718225711142776	1.2148757791720772	0.03074912694128379	0.3666153709779873	0.701664544445881	0.011948057491677237	0.26543804446281116	0.9235149522291625	0.1376958516604168	0.07906814450169712	1.068298218241022	0.22507846458013306	0.05000923471918319	1.1294165583945586	0.22675507380620794	0.05555312212441698	1.172611742853501	0.15816962433807333	0.07869556751714382	1.1938279894804262
